<svg id="visual" viewBox="0 0 900 600" width="900" height="600" xmlns="http://www.w3.org/2000/svg" xmlns:xlink="http://www.w3.org/1999/xlink" version="1.1"><rect x="0" y="0" width="900" height="600" fill="#ffffff"></rect><path d="M748 0L582 0L582 67L501 67L501 133L757 133L757 200L585 200L585 267L479 267L479 333L674 333L674 400L537 400L537 467L656 467L656 533L421 533L421 600L0 600L0 533L0 533L0 467L0 467L0 400L0 400L0 333L0 333L0 267L0 267L0 200L0 200L0 133L0 133L0 67L0 67L0 0L0 0Z" fill="#b2e3ff"></path><path d="M435 0L477 0L477 67L300 67L300 133L437 133L437 200L502 200L502 267L254 267L254 333L416 333L416 400L532 400L532 467L279 467L279 533L520 533L520 600L0 600L0 533L0 533L0 467L0 467L0 400L0 400L0 333L0 333L0 267L0 267L0 200L0 200L0 133L0 133L0 67L0 67L0 0L0 0Z" fill="#a0e1ff"></path><path d="M354 0L327 0L327 67L239 67L239 133L293 133L293 200L102 200L102 267L108 267L108 333L126 333L126 400L155 400L155 467L157 467L157 533L351 533L351 600L0 600L0 533L0 533L0 467L0 467L0 400L0 400L0 333L0 333L0 267L0 267L0 200L0 200L0 133L0 133L0 67L0 67L0 0L0 0Z" fill="#8ce0ff"></path></svg>